<?xml version="1.0" standalone="no"?>
<!DOCTYPE svg PUBLIC "-//W3C//DTD SVG 20010904//EN"
 "http://www.w3.org/TR/2001/REC-SVG-20010904/DTD/svg10.dtd">
<svg version="1.0" xmlns="http://www.w3.org/2000/svg"
 width="1280.000000pt" height="640.000000pt" viewBox="0 0 1280.000000 640.000000"
 preserveAspectRatio="xMidYMid meet">
<metadata>
Created by potrace 1.15, written by Peter Selinger 2001-2017
</metadata>
<g transform="translate(0.000000,640.000000) scale(0.100000,-0.100000)"
fill="#000000" stroke="none">
<path d="M4205 4823 c-110 -1 -375 -7 -590 -13 -214 -6 -579 -15 -810 -20
-231 -6 -573 -15 -760 -21 -187 -6 -549 -14 -805 -19 -608 -11 -604 -10 -1038
-220 l-202 -99 0 -1235 0 -1236 148 -74 c316 -158 469 -212 662 -235 47 -5
290 -12 540 -16 250 -3 586 -10 745 -15 740 -26 2473 -52 2955 -45 461 7 1272
31 1545 45 1594 86 2779 249 3765 519 444 122 722 216 1060 361 157 67 233 97
440 170 403 143 668 266 817 380 138 104 151 159 60 247 -104 101 -430 271
-762 398 -33 12 -96 37 -140 55 -44 18 -154 61 -245 95 -91 35 -244 96 -340
135 -202 82 -451 167 -700 238 -1165 334 -2488 509 -4389 582 -345 13 -1302
30 -1561 27 -107 -1 -285 -3 -395 -4z"/>
</g>
</svg>
